<svg width="18" height="18" viewBox="0 0 18 18" fill="none" xmlns="http://www.w3.org/2000/svg">
<path d="M8.46728 14.4759L15.0413 7.90191C13.9352 7.44013 12.9307 6.76544 12.0849 5.91621C11.2353 5.0702 10.5603 4.0654 10.0983 2.95898L3.52435 9.53296C3.01148 10.0458 2.7546 10.3027 2.53416 10.5854C2.27382 10.9189 2.05059 11.2799 1.86841 11.6618C1.71463 11.9853 1.59997 12.3302 1.37065 13.0182L0.160022 16.6474C0.104303 16.8135 0.0960366 16.992 0.136151 17.1626C0.176266 17.3332 0.263172 17.4892 0.3871 17.6131C0.511029 17.7371 0.667067 17.824 0.837676 17.8641C1.00828 17.9042 1.1867 17.8959 1.35287 17.8402L4.98207 16.6296C5.67094 16.4003 6.01492 16.2856 6.33847 16.1318C6.72068 15.9496 7.08155 15.7265 7.41487 15.4661C7.69753 15.2456 7.95441 14.9888 8.46728 14.4759ZM16.8652 6.07798C17.5207 5.4225 17.8889 4.53349 17.8889 3.60651C17.8889 2.67953 17.5207 1.79052 16.8652 1.13504C16.2097 0.479569 15.3207 0.111328 14.3937 0.111328C13.4668 0.111328 12.5777 0.479569 11.9223 1.13504L11.1339 1.92346L11.1676 2.02212C11.5562 3.13383 12.192 4.14285 13.0271 4.97313C13.8822 5.83328 14.9266 6.48161 16.0768 6.86639L16.8652 6.07798Z" fill="white"/>
</svg>
